<svg xmlns="http://www.w3.org/2000/svg" width="1013" height="506" fill="none">
    <path fill="#4C4A51" d="M107.044 127.669v-19.24h-70.73V73.005h60.471V54.844h-60.47V19.42h70.009V0H14.538v127.669h92.506ZM207.553 127.669V68.15c0-24.994-11.699-36.143-32.395-36.143-19.617 0-28.256 10.25-31.856 19.06V34.346h-20.336v93.324h20.336V81.816c0-21.578 8.999-32.547 24.657-32.547 12.778 0 19.077 6.833 19.077 24.096v54.304h20.517ZM292.2 0v47.83c-6.659-10.608-16.917-15.823-30.775-15.823-25.376 0-39.594 21.398-39.594 49.09 0 27.332 14.218 48.909 39.594 48.909 13.858 0 24.116-5.214 30.775-15.644v13.307h20.517V0H292.2Zm-6.839 105.012c-4.499 5.574-10.618 8.272-18.177 8.272-7.379 0-13.498-2.698-18.177-8.272-4.5-5.574-6.839-13.666-6.839-23.915 0-10.25 2.339-18.341 6.839-23.916 4.679-5.574 10.798-8.451 18.177-8.451 7.559 0 13.678 2.877 18.177 8.451 4.499 5.575 6.839 13.666 6.839 23.916s-2.34 18.34-6.839 23.915ZM352.124 127.669V0h-20.517v127.669h20.517ZM456.982 81.636c0-15.284-3.96-27.332-12.058-36.143-7.919-8.99-18.718-13.486-32.575-13.486-29.156 0-44.994 21.398-44.994 49.63 0 14.564 3.96 26.432 11.879 35.243 7.918 8.811 19.077 13.126 33.295 13.126 20.336 0 35.454-10.249 41.933-28.231h-20.877c-4.319 7.912-11.698 12.587-21.056 12.587-13.498 0-22.857-9.71-24.837-26.792h69.11l.18-5.934Zm-44.453-33.985c13.137 0 22.316 9.53 23.936 27.332h-48.773c1.62-17.083 11.159-27.332 24.837-27.332ZM509.109 130.006c30.235 0 41.754-13.666 41.754-29.849 0-11.508-6.119-18.7-14.758-21.758-4.139-1.618-5.939-2.517-10.978-3.416-4.86-1.259-6.299-1.439-11.519-2.158l-4.319-.72c-5.219-.898-6.659-1.258-10.438-2.157-1.8-.54-3.06-.899-3.96-1.438-3.059-2.158-5.219-4.136-5.219-8.991 0-7.732 6.839-12.767 19.257-12.767 13.138 0 20.157 5.574 20.157 14.026h19.977c0-17.802-15.298-28.77-40.494-28.77-25.376 0-39.234 11.148-39.234 28.95 0 3.776.72 7.192 1.98 10.249 3.059 6.293 9.718 10.789 19.977 13.486 2.339.54 8.278 1.798 17.997 3.416 6.479 1.26 8.639 1.619 12.778 3.057 2.16.54 3.779 1.259 4.679 2.158 1.98 1.618 3.6 4.675 3.6 8.451 0 8.092-6.839 13.487-20.697 13.487-14.218 0-21.237-5.035-21.237-14.925h-20.697c0 17.981 13.138 29.669 41.394 29.669ZM603.489 130.006c30.235 0 41.754-13.666 41.754-29.849 0-11.508-6.119-18.7-14.758-21.758-4.139-1.618-5.939-2.517-10.978-3.416-4.86-1.259-6.299-1.439-11.519-2.158l-4.319-.72c-5.219-.898-6.659-1.258-10.438-2.157-1.8-.54-3.06-.899-3.96-1.438-3.059-2.158-5.219-4.136-5.219-8.991 0-7.732 6.839-12.767 19.257-12.767 13.138 0 20.157 5.574 20.157 14.026h19.977c0-17.802-15.298-28.77-40.494-28.77-25.376 0-39.234 11.148-39.234 28.95 0 3.776.72 7.192 1.98 10.249 3.059 6.293 9.718 10.789 19.977 13.486 2.339.54 8.279 1.798 17.997 3.416 6.479 1.26 8.639 1.619 12.778 3.057 2.16.54 3.78 1.259 4.679 2.158 1.98 1.618 3.6 4.675 3.6 8.451 0 8.092-6.839 13.487-20.697 13.487-14.218 0-21.237-5.035-21.237-14.925h-20.697c0 17.981 13.138 29.669 41.394 29.669ZM36.315 298.493v-46.212h34.374c26.456 0 42.834-14.925 42.834-40.639 0-25.893-16.378-40.818-42.834-40.818H14.538v127.669h21.777ZM68.17 190.244c11.698 0 23.396 5.035 23.396 21.938S79.868 233.94 68.17 233.94H36.315v-43.696H68.17ZM129.144 216.318c-8.099 8.811-12.238 20.678-12.238 35.603s4.139 26.793 12.238 35.604c8.278 8.81 19.617 13.306 34.014 13.306 14.578 0 25.916-4.496 34.195-13.306 8.279-8.811 12.418-20.679 12.418-35.604s-4.139-26.792-12.418-35.603c-8.279-8.991-19.617-13.486-34.195-13.486-14.397 0-25.736 4.495-34.014 13.486Zm52.552 11.867c4.859 5.755 7.199 13.666 7.199 23.736 0 9.89-2.34 17.802-7.199 23.556-4.68 5.754-10.799 8.631-18.538 8.631-7.558 0-13.677-2.877-18.537-8.631-4.679-5.754-7.019-13.666-7.019-23.556 0-10.07 2.34-17.981 7.199-23.736 4.86-5.754 10.979-8.631 18.537-8.631 7.559 0 13.678 2.877 18.358 8.631ZM262.174 300.831c30.236 0 41.754-13.666 41.754-29.849 0-11.509-6.119-18.701-14.758-21.758-4.139-1.618-5.939-2.518-10.978-3.417-4.86-1.258-6.299-1.438-11.518-2.157l-4.32-.72c-5.219-.899-6.659-1.258-10.438-2.157-1.8-.54-3.06-.9-3.96-1.439-3.059-2.158-5.219-4.136-5.219-8.991 0-7.732 6.839-12.767 19.257-12.767 13.138 0 20.157 5.575 20.157 14.026h19.977c0-17.802-15.298-28.77-40.494-28.77-25.376 0-39.234 11.148-39.234 28.95 0 3.776.72 7.192 1.98 10.249 3.06 6.294 9.719 10.789 19.977 13.486 2.34.54 8.279 1.799 17.997 3.417 6.479 1.259 8.639 1.618 12.778 3.057 2.16.539 3.78 1.258 4.68 2.158 1.979 1.618 3.599 4.675 3.599 8.451 0 8.092-6.839 13.486-20.697 13.486-14.218 0-21.237-5.035-21.237-14.925h-20.696c0 17.982 13.138 29.67 41.393 29.67ZM356.554 300.831c30.236 0 41.754-13.666 41.754-29.849 0-11.509-6.119-18.701-14.758-21.758-4.139-1.618-5.939-2.518-10.978-3.417-4.859-1.258-6.299-1.438-11.518-2.157l-4.32-.72c-5.219-.899-6.659-1.258-10.438-2.157-1.8-.54-3.06-.9-3.96-1.439-3.059-2.158-5.219-4.136-5.219-8.991 0-7.732 6.839-12.767 19.257-12.767 13.138 0 20.157 5.575 20.157 14.026h19.977c0-17.802-15.298-28.77-40.494-28.77-25.376 0-39.234 11.148-39.234 28.95 0 3.776.72 7.192 1.98 10.249 3.06 6.294 9.719 10.789 19.977 13.486 2.34.54 8.279 1.799 17.997 3.417 6.479 1.259 8.639 1.618 12.778 3.057 2.16.539 3.78 1.258 4.68 2.158 1.979 1.618 3.599 4.675 3.599 8.451 0 8.092-6.839 13.486-20.697 13.486-14.218 0-21.237-5.035-21.237-14.925h-20.696c0 17.982 13.138 29.67 41.393 29.67ZM434.377 298.493v-93.324H413.86v93.324h20.517ZM413.5 170.824v20.859h21.057v-20.859H413.5ZM473.545 298.493v-13.306c6.659 10.429 17.097 15.644 30.955 15.644 25.376 0 39.594-21.578 39.594-48.91 0-27.691-14.578-49.089-39.594-49.089-13.858 0-24.116 5.214-30.955 15.823v-47.831h-20.337v127.669h20.337Zm6.839-70.487c4.679-5.575 10.798-8.452 18.177-8.452 7.559 0 13.678 2.877 18.177 8.452 4.499 5.574 6.839 13.666 6.839 23.915 0 10.25-2.34 18.341-6.839 23.916-4.499 5.574-10.618 8.271-18.177 8.271-7.379 0-13.498-2.697-18.177-8.271-4.5-5.575-6.839-13.666-6.839-23.916 0-10.249 2.339-18.341 6.839-23.915ZM579.901 298.493v-93.324h-20.516v93.324h20.516Zm-20.876-127.669v20.859h21.056v-20.859h-21.056ZM620.149 298.493V170.824h-20.517v127.669h20.517ZM660.397 298.493v-93.324H639.88v93.324h20.517ZM639.52 170.824v20.859h21.057v-20.859H639.52ZM718.968 299.213c3.959 0 8.639-.36 14.218-.9V281.95l-.9.18c-1.44.18-4.499.54-6.839.54-9.898 0-14.038-4.676-14.038-17.622v-42.976h21.777v-16.903h-21.777v-32.367l-20.517 7.912v24.455h-17.457v16.903h17.457v44.774c0 22.477 8.099 32.367 28.076 32.367ZM768.662 298.493v-93.324h-20.517v93.324h20.517Zm-20.877-127.669v20.859h21.057v-20.859h-21.057ZM873.519 252.461c0-15.285-3.959-27.332-12.058-36.143-7.919-8.991-18.717-13.486-32.575-13.486-29.155 0-44.993 21.398-44.993 49.629 0 14.565 3.96 26.432 11.878 35.243 7.919 8.811 19.077 13.127 33.295 13.127 20.337 0 35.455-10.25 41.934-28.231h-20.877c-4.319 7.912-11.698 12.587-21.057 12.587-13.498 0-22.856-9.71-24.836-26.793h69.109l.18-5.933Zm-44.453-33.986c13.138 0 22.317 9.531 23.937 27.332H804.23c1.62-17.082 11.158-27.332 24.836-27.332ZM925.647 300.831c30.235 0 41.753-13.666 41.753-29.849 0-11.509-6.119-18.701-14.757-21.758-4.14-1.618-5.94-2.518-10.979-3.417-4.859-1.258-6.299-1.438-11.518-2.157l-4.319-.72c-5.22-.899-6.659-1.258-10.439-2.157-1.799-.54-3.059-.9-3.959-1.439-3.06-2.158-5.219-4.136-5.219-8.991 0-7.732 6.839-12.767 19.257-12.767 13.138 0 20.157 5.575 20.157 14.026h19.977c0-17.802-15.298-28.77-40.494-28.77-25.376 0-39.234 11.148-39.234 28.95 0 3.776.72 7.192 1.98 10.249 3.059 6.294 9.718 10.789 19.976 13.486 2.34.54 8.279 1.799 17.998 3.417 6.479 1.259 8.638 1.618 12.778 3.057 2.159.539 3.779 1.258 4.679 2.158 1.98 1.618 3.599 4.675 3.599 8.451 0 8.092-6.839 13.486-20.696 13.486-14.218 0-21.237-5.035-21.237-14.925h-20.697c0 17.982 13.138 29.67 41.394 29.67ZM996.948 321.869l5.402-12.587c1.8-4.495 2.7-8.811 2.7-13.306V272.06h-21.78v26.433h9.179l-8.999 23.376h13.498ZM35.635 375.994H15.118v95.841c0 10.969-4.32 15.284-12.418 15.284H0v16.543h7.379c19.437 0 28.256-11.328 28.256-30.748v-96.92Zm-20.877-34.345v20.858h21.057v-20.858H14.758ZM54.286 375.994v59.518c0 24.096 10.798 36.143 32.215 36.143 15.837 0 26.276-6.293 31.315-18.88v16.543h20.517v-93.324h-20.517v45.673c0 21.757-8.639 32.726-24.296 32.726-12.418 0-18.897-6.833-18.897-24.095v-54.304H54.285ZM194.201 471.655c30.236 0 41.754-13.666 41.754-29.849 0-11.508-6.119-18.701-14.758-21.758-4.139-1.618-5.939-2.517-10.978-3.416-4.859-1.259-6.299-1.439-11.518-2.158l-4.32-.719c-5.219-.899-6.659-1.259-10.438-2.158-1.8-.539-3.059-.899-3.959-1.438-3.06-2.158-5.22-4.136-5.22-8.991 0-7.732 6.839-12.767 19.258-12.767 13.137 0 20.156 5.574 20.156 14.025h19.977c0-17.801-15.297-28.77-40.493-28.77-25.377 0-39.234 11.149-39.234 28.95 0 3.776.719 7.193 1.979 10.25 3.06 6.293 9.719 10.789 19.977 13.486 2.34.539 8.279 1.798 17.997 3.416 6.479 1.259 8.639 1.619 12.778 3.057 2.16.54 3.78 1.259 4.68 2.158 1.979 1.618 3.599 4.675 3.599 8.451 0 8.092-6.839 13.486-20.697 13.486-14.217 0-21.236-5.034-21.236-14.924h-20.697c0 17.981 13.138 29.669 41.393 29.669ZM288.941 470.037c3.96 0 8.639-.36 14.218-.899v-16.363l-.9.18c-1.439.179-4.499.539-6.839.539-9.898 0-14.037-4.675-14.037-17.622v-42.976h21.776v-16.902h-21.776v-32.367l-20.517 7.912v24.455h-17.458v16.902h17.458v44.774c0 22.477 8.099 32.367 28.075 32.367Z" />
    <path fill="#fff" d="M369.392 469.318v-93.324h-20.517v93.324h20.517Zm-20.877-127.669v20.858h21.057v-20.858h-21.057ZM468.131 469.318v-46.932c0-20.859 8.818-31.468 22.496-31.468 10.979 0 16.558 6.833 16.558 23.196v55.204h20.517V408.72c0-23.915-11.339-35.064-30.956-35.064-19.077 0-27.535 10.429-31.315 18.521-4.139-12.407-13.318-18.521-27.536-18.521-18.897 0-26.276 11.149-29.335 18.341v-16.003h-20.337v93.324h20.337v-46.932c0-20.859 8.639-31.468 22.316-31.468 10.979 0 16.738 6.833 16.738 23.196v55.204h20.517ZM625.791 407.641c0-20.858-12.418-33.985-39.594-33.985-30.775 0-39.414 16.004-40.494 29.31h19.617c1.62-9.351 8.819-14.565 21.057-14.565 14.938 0 19.617 7.912 19.617 13.306 0 7.732-4.679 10.609-12.238 12.228-4.14.719-6.659 1.078-12.238 1.798-2.7.18-4.86.539-6.659.719-9.539 1.618-18.898 3.776-25.916 10.249-4.14 3.777-7.019 10.25-7.019 18.342 0 16.722 11.518 26.612 32.215 26.612 14.937 0 25.736-5.035 32.395-15.104.54 5.574 1.26 9.71 2.159 12.767h19.977l-.72-2.518c-.899-3.416-2.159-12.407-2.159-21.937v-37.222Zm-46.973 22.117c.54-.179 2.16-.359 4.499-.719l4.68-.899c1.619-.539 6.838-1.439 8.458-2.158 3.42-1.258 7.559-2.877 9.539-5.214v7.012c0 19.241-8.639 29.67-25.736 29.67-11.518 0-17.638-4.855-17.638-13.306 0-9.71 7.559-12.587 16.198-14.386ZM686.419 491.255c-10.618 0-17.817-3.416-21.597-10.249h-20.697c4.86 13.666 14.038 24.994 41.934 24.994 39.774-.18 44.813-23.016 44.993-50.528v-79.478h-20.517V389.3c-6.839-10.429-17.097-15.644-30.595-15.644-25.376 0-39.594 21.578-39.594 49.09 0 27.331 14.218 48.55 39.594 48.55 13.678 0 23.936-5.035 30.595-15.285v2.158c0 21.938-4.679 33.086-24.116 33.086Zm24.116-68.509c0 20.319-9.898 31.827-24.836 31.827-15.118 0-24.836-11.508-24.836-31.827 0-20.679 9.898-32.367 24.836-32.367 14.938 0 24.836 11.688 24.836 32.367ZM770.288 469.318v-93.324h-20.517v93.324h20.517Zm-20.877-127.669v20.858h21.056v-20.858h-21.056ZM873.706 469.318v-59.519c0-24.994-11.699-36.143-32.395-36.143-19.617 0-28.256 10.249-31.856 19.06v-16.722h-20.336v93.324h20.336v-45.853c0-21.578 8.999-32.547 24.657-32.547 12.778 0 19.077 6.833 19.077 24.095v54.305h20.517ZM977.61 423.285c0-15.284-3.959-27.332-12.058-36.143-7.919-8.991-18.717-13.486-32.575-13.486-29.156 0-44.993 21.398-44.993 49.629 0 14.565 3.959 26.433 11.878 35.244 7.919 8.811 19.077 13.126 33.295 13.126 20.337 0 35.454-10.249 41.933-28.231h-20.876c-4.32 7.912-11.699 12.587-21.057 12.587-13.498 0-22.857-9.71-24.836-26.792h69.109l.18-5.934ZM933.157 389.3c13.138 0 22.316 9.53 23.936 27.332h-48.772c1.62-17.083 11.158-27.332 24.836-27.332ZM1013 469.318v-26.433h-21.777v26.433H1013Z" />
</svg>